<svg xmlns="http://www.w3.org/2000/svg" viewBox="0 0 393.31 393.31"><title>gosolr-logo-new</title><circle cx="196.66" cy="196.66" r="196.66" style="fill:#ffdc00"/><rect x="287.6" y="151.65" width="16.64" height="72.43"/><path d="M333.07,178.37v-9.14H316.43v54.62h16.64V198.77c0-4.46.94-7.74,3.05-9.38,2.11-1.88,5.16-2.58,9.37-2.58h4.69V168.76a20.57,20.57,0,0,0-9.84,2.58,29.73,29.73,0,0,0-7.27,7"/><path d="M88.6,197.12a21.88,21.88,0,0,1-2.34,10.55,17.25,17.25,0,0,1-6.57,7,18.95,18.95,0,0,1-18.28,0,17.29,17.29,0,0,1-6.56-7,22.2,22.2,0,0,1-2.35-10.78,21.91,21.91,0,0,1,2.35-10.55,15.44,15.44,0,0,1,6.56-6.8,19,19,0,0,1,18.28,0,18.32,18.32,0,0,1,6.57,6.8,27,27,0,0,1,2.34,10.78m8.91,28.13V170.4H88.6v9.85a20.4,20.4,0,0,0-7.73-7.74,23,23,0,0,0-12.19-3A24.21,24.21,0,0,0,55.79,173a22.64,22.64,0,0,0-9.15,9.61,31.63,31.63,0,0,0-3.28,14.53,32.35,32.35,0,0,0,3.28,14.54,23.15,23.15,0,0,0,9.15,9.84A24.71,24.71,0,0,0,68.68,225,23,23,0,0,0,80.87,222a20.4,20.4,0,0,0,7.73-7.74v11.26c0,5.62-1.64,9.84-4.69,12.89a16.26,16.26,0,0,1-12,4.69,19,19,0,0,1-11-3,13.79,13.79,0,0,1-6.09-8H45.94c.94,5.62,3.52,10.31,8.44,13.59q7,4.94,17.58,4.93a28.39,28.39,0,0,0,13.59-3.29,21.71,21.71,0,0,0,8.91-8.9,27.14,27.14,0,0,0,3.05-13.13"/><path d="M151.65,197.12a23.21,23.21,0,0,1-2.58,11,17.21,17.21,0,0,1-6.79,6.8,20.29,20.29,0,0,1-8.91,2.34,19.18,19.18,0,0,1-8.91-2.11,14.91,14.91,0,0,1-6.33-6.79,27.12,27.12,0,0,1,0-22,16.76,16.76,0,0,1,6.57-6.8,19.93,19.93,0,0,1,17.81,0,15.44,15.44,0,0,1,6.56,6.8c1.88,2.81,2.58,6.33,2.58,10.78m9.14,0a29.05,29.05,0,0,0-3.51-14.53,22.94,22.94,0,0,0-9.85-9.61,27.46,27.46,0,0,0-13.83-3.28A30.11,30.11,0,0,0,119.77,173a25.92,25.92,0,0,0-9.84,9.61,29.67,29.67,0,0,0-3.52,14.53,29.07,29.07,0,0,0,3.52,14.54,25.82,25.82,0,0,0,9.61,9.84,26.64,26.64,0,0,0,13.6,3.52A27.48,27.48,0,0,0,147,221.5a24.87,24.87,0,0,0,9.85-9.84c2.81-4.22,4-8.91,4-14.54"/><path d="M192.67,224.78a29.84,29.84,0,0,0,11.72-2.11,19.87,19.87,0,0,0,7.74-5.86,14,14,0,0,0,2.57-8.67,14.31,14.31,0,0,0-3-9.14,15.41,15.41,0,0,0-6.8-4.92A84.24,84.24,0,0,0,195,191a39.13,39.13,0,0,1-7.73-2.34,3.74,3.74,0,0,1-2.58-3.52,3.19,3.19,0,0,1,1.64-3A7.81,7.81,0,0,1,190.8,181a8.48,8.48,0,0,1,5.62,1.64,6.68,6.68,0,0,1,2.58,4.46h15.47c-.7-5.63-2.81-10.08-6.8-13.6-4-3.28-9.37-5.16-16.17-5.16a26.6,26.6,0,0,0-12,2.35,18.32,18.32,0,0,0-7.73,6.09,15.72,15.72,0,0,0-2.58,8.67,13.55,13.55,0,0,0,2.81,8.91,17,17,0,0,0,6.8,4.69,89.6,89.6,0,0,0,9.85,2.81c3.75.94,6.32,1.64,8,2.58a3.51,3.51,0,0,1,2.34,3.52,3.81,3.81,0,0,1-1.64,3.28,9.54,9.54,0,0,1-4.92,1.17,9.66,9.66,0,0,1-5.86-1.88A6.35,6.35,0,0,1,184,205.8H167.36a17.8,17.8,0,0,0,3.51,9.61,22.06,22.06,0,0,0,8.91,6.79,29.41,29.41,0,0,0,12.89,2.58"/><path d="M261.58,196.66c0,4.45-1.17,7.73-3.28,10.07a11,11,0,0,1-8.2,3.52,10.14,10.14,0,0,1-8-3.52c-2.11-2.34-3.28-5.62-3.28-10.07s1.17-7.74,3.28-10.08a10.62,10.62,0,0,1,8.2-3.52,10.14,10.14,0,0,1,8,3.52c2.11,2.34,3.28,5.86,3.28,10.08m17.11,0a27.68,27.68,0,0,0-3.75-14.77A27.12,27.12,0,0,0,264.86,172a29.67,29.67,0,0,0-14.53-3.51A30.31,30.31,0,0,0,235.8,172a25.47,25.47,0,0,0-10.08,9.85,30.94,30.94,0,0,0,0,29.53,25.47,25.47,0,0,0,10.08,9.85,31.83,31.83,0,0,0,29.06,0,26.09,26.09,0,0,0,10.32-9.85,32.67,32.67,0,0,0,3.51-14.76"/></svg>