<?xml version="1.0" encoding="utf-8"?>
<!-- Generator: Adobe Illustrator 26.5.3, SVG Export Plug-In . SVG Version: 6.00 Build 0)  -->
<svg version="1.1" id="Layer_1" xmlns="http://www.w3.org/2000/svg" xmlns:xlink="http://www.w3.org/1999/xlink" x="0px" y="0px"
	 viewBox="0 0 159.1 244.6" style="enable-background:new 0 0 159.1 244.6;" xml:space="preserve">
<style type="text/css">
	.st0{fill:#FFFFFF;}
</style>
<g>
	<g>
		<path d="M99,98.5l-33-4.4c-1-0.1-1.8-1.1-1.6-2.1l0.5-3.8c0.1-1,1.1-1.8,2.1-1.6l33,4.4c1,0.1,1.8,1.1,1.6,2.1l-0.5,3.8
			C101,97.9,100.1,98.6,99,98.5"/>
	</g>
	<g>
		<path class="st0" d="M92.9,108.5l-23.5-3.1c-1-0.1-1.8-1.1-1.6-2.1l0.5-3.8c0.1-1,1.1-1.8,2.1-1.6l23.5,3.1c1,0.1,1.8,1.1,1.6,2.1
			l-0.5,3.8C94.9,107.9,94,108.6,92.9,108.5z"/>
		<path d="M93.2,109.2c-0.1,0-0.2,0-0.4,0l-23.5-3.1c-1.4-0.2-2.4-1.5-2.2-2.9l0.5-3.8c0.2-1.4,1.5-2.4,2.9-2.2l23.5,3.1
			c1.4,0.2,2.4,1.5,2.2,2.9l-0.5,3.8c-0.1,0.7-0.4,1.3-1,1.7C94.3,109.1,93.7,109.2,93.2,109.2z M70.1,98.6c-0.6,0-1.1,0.4-1.2,1
			l-0.5,3.8c-0.1,0.6,0.4,1.2,1,1.3l23.5,3.1c0.3,0,0.6,0,0.9-0.2c0.2-0.2,0.4-0.5,0.4-0.8l0.5-3.8c0.1-0.6-0.4-1.2-1-1.3l-23.5-3.1
			C70.2,98.6,70.2,98.6,70.1,98.6z"/>
	</g>
	<g>
		<path class="st0" d="M113.7,52.4c-1.6,6.1-5.5,11.3-9,16.6c-2.7,4-5.2,8.4-6.1,13.1c-0.5,2.4-2.8,4-5.2,3.7l-19-2.5
			c-2.4-0.3-4.2-2.5-4-5c0.3-4.8-1-9.7-2.5-14.3c-2-6-4.4-12-4.4-18.3c0.1-7,3.4-13.9,8.9-18.2c5.4-4.3,12.7-5.9,19.8-4.9
			c7,0.9,13.7,4.3,17.8,9.9C114.1,38.1,115.5,45.6,113.7,52.4z"/>
		<path d="M94,86.5c-0.2,0-0.5,0-0.7,0l-19-2.5c-2.8-0.4-4.9-2.9-4.7-5.7c0.3-4.9-1.1-9.8-2.4-14c-0.3-0.9-0.6-1.7-0.9-2.6
			c-1.8-5.1-3.6-10.4-3.5-16c0.1-7.2,3.5-14.2,9.2-18.8c5.3-4.2,12.7-6.1,20.3-5.1c7.6,1,14.3,4.7,18.3,10.2
			c4.3,5.8,5.7,13.5,3.9,20.5l0,0c-1.4,5.3-4.5,10-7.6,14.5c-0.5,0.8-1,1.5-1.5,2.3c-2.4,3.7-5.1,8.1-6,12.8
			C98.8,84.7,96.5,86.5,94,86.5z M88.2,23c-5.8,0-11.2,1.8-15.3,5c-5.3,4.2-8.5,10.8-8.6,17.6c-0.1,5.3,1.7,10.5,3.4,15.5
			c0.3,0.9,0.6,1.8,0.9,2.6c1.4,4.3,2.8,9.4,2.5,14.5c-0.1,2.1,1.4,3.9,3.4,4.2l19,2.5c2.1,0.3,4-1.1,4.4-3.1c1-5,3.7-9.6,6.2-13.4
			c0.5-0.8,1-1.5,1.6-2.3c3-4.4,6-8.9,7.4-14l0,0c1.7-6.6,0.3-13.8-3.7-19.3c-3.8-5.2-10.1-8.7-17.3-9.6C90.8,23.1,89.5,23,88.2,23z
			"/>
	</g>
	<g>
		<path d="M84.7,76.2c0,0-0.1,0-0.1,0c-0.4-0.1-0.7-0.4-0.6-0.8l2.2-12.2c1.1-6.1-0.3-12.1-3.9-16.8c-0.4-0.5-0.4-1.2-0.1-1.7
			c0.3-0.6,1-0.9,1.7-0.9L96.5,45c0.7,0.1,1.2,0.5,1.3,1.1c0.2,0.6-0.1,1.3-0.6,1.8l-3.2,2.4c-0.3,0.2-0.8,0.2-1-0.1
			c-0.2-0.3-0.2-0.8,0.1-1l3.2-2.4c0.1-0.1,0.1-0.2,0.1-0.2c0,0,0-0.1-0.1-0.1l-12.7-1.3c-0.2,0-0.2,0.1-0.2,0.1c0,0.1,0,0.1,0,0.2
			c3.8,5.1,5.3,11.5,4.2,18l-2.2,12.2C85.4,76,85.1,76.2,84.7,76.2z"/>
	</g>
	<g>
		<g>
			<path d="M133.5,52.3C133.5,52.3,133.5,52.3,133.5,52.3L123.1,51c-0.4-0.1-0.7-0.4-0.6-0.8c0.1-0.4,0.4-0.7,0.8-0.6l10.3,1.3
				c0.4,0.1,0.7,0.4,0.6,0.8C134.2,52.1,133.9,52.3,133.5,52.3z"/>
		</g>
		<g>
			<path d="M53.7,42C53.7,42,53.6,42,53.7,42l-10.4-1.3c-0.4-0.1-0.7-0.4-0.6-0.8c0.1-0.4,0.4-0.7,0.8-0.6l10.3,1.3
				c0.4,0.1,0.7,0.4,0.6,0.8C54.4,41.8,54,42,53.7,42z"/>
		</g>
		<g>
			<path d="M93.1,11.8C93.1,11.8,93,11.8,93.1,11.8c-0.5-0.1-0.8-0.4-0.7-0.8l1.4-10.3C93.8,0.2,94.2,0,94.6,0
				c0.4,0.1,0.7,0.4,0.6,0.8l-1.4,10.3C93.8,11.5,93.5,11.8,93.1,11.8z"/>
		</g>
		<g>
			<path d="M116.2,25.1c-0.2,0-0.4-0.1-0.6-0.3c-0.2-0.3-0.2-0.8,0.1-1l8.2-6.4c0.3-0.2,0.8-0.2,1,0.1c0.2,0.3,0.2,0.8-0.1,1
				l-8.2,6.4C116.5,25,116.4,25.1,116.2,25.1z"/>
		</g>
		<g>
			<path d="M67.2,18.7c-0.2,0-0.4-0.1-0.6-0.3l-6.3-8.3c-0.2-0.3-0.2-0.8,0.1-1c0.3-0.2,0.8-0.2,1,0.1l6.3,8.3
				c0.2,0.3,0.2,0.8-0.1,1C67.5,18.6,67.3,18.7,67.2,18.7z"/>
		</g>
	</g>
</g>
<g>
	<g>
		<path class="st0" d="M125.2,204c-5.7-1.8-11.6-3.5-17.3-5.1c-2.9-0.8-5.8-1.6-8.7-2.5c-3.2-1-4.9-3.6-6.5-6.3
			c-1.2,0-2.5-0.1-3.7-0.1c-0.2,4.1-2,8.2-4.8,10.6c-1.8,1.7-4,2.5-6.4,2.5c-0.4,0-0.7,0-1.1-0.1c-6.1-0.7-11.7-7.2-11.7-13.7
			c-7.3,0.3-14.5,1.3-21.6,3.9c-12.1,4.6-19.7,20.4-26.5,34.4c0,0-7.7,16.8-7.7,16.8h39.1h0.7c0.5-2.1,1.4-6.6,1.7-10.7
			c0-0.5,0.1-1.1,0.2-1.6c0.2-1.8,0.4-3.7,0.7-5.5c0.6-4.1,1.5-7.9,3-10.3c0.5-0.8,1.1-1.5,1.8-2c0.3-0.2,0.8-0.1,1,0.2
			c0.2,0.3,0.1,0.8-0.2,1c-2.1,1.5-3.3,5.8-4.1,10.6c-0.3,1.9-0.5,3.8-0.8,5.6c-0.1,0.7-0.2,1.5-0.2,2.2c-0.4,3.5-1.1,8.4-1.7,10.5
			c15,0,30.5,0,50,0c-0.1-3.1-0.2-12.3-0.2-15.6c0-2.4,0-5,0.4-7.7c0-0.2,0.1-0.5,0.1-0.7c0-0.2,0.1-0.5,0.1-0.7
			c0.6-3.5,1.7-7,3.8-10.1c0.2-0.3,0.4-0.5,0.5-0.8c0.2-0.3,0.7-0.4,1-0.2s0.4,0.7,0.2,1c-2.2,3-3.4,6.5-4.1,10
			c5.4-0.1,11.2,0.9,16.8,1.9c2,0.4,3.9,0.7,5.8,1c1.4,0.2,3,0.5,4.3-0.1c2.6-1,3.3-4.5,3.3-7.3l0-0.8c0-3.4-0.8-5.9-1.9-8.4
			L125.2,204z"/>
		<path class="st0" d="M66.6,189.3c0,5.7,5.1,11.7,10.5,12.3c2.3,0.3,4.5-0.5,6.3-2.1c2.5-2.2,4.1-5.9,4.3-9.6
			c-1.5-0.1-2.9-0.1-4.4-0.2C77.6,189.4,72.1,189.2,66.6,189.3z"/>
		<path class="st0" d="M59.4,174.1c0.1,0.1,0.2,0.1,0.3,0.2c4.1,2.8,8.8,4.3,13.8,4.3c1.3,0,2.6-0.1,3.8-0.3c-1.2-0.5-2.3-1-3.4-1.5
			c-0.1-0.1-0.2-0.1-0.3-0.2c-1.7-1-1.5-2.3-1.4-2.8c0.6-1.8,3.4-3,5.2-2.7l8.2,1.3l3.5,0.5c4.6-3.9,7.7-9.6,8.3-16.1
			c0.1-0.8,0.1-1.5,0.1-2.2c0-0.6,0-1.1-0.1-1.7c-0.9-12.2-10.9-22-23.3-22.4c0,0,0,0,0,0c0,0.1,0,0.1,0,0.2c0,0.5,0,1,0,1.4
			c0,9.3-5.1,17.9-13.3,22.4c-3.6,2-5.9,5.6-6.2,9.7C54.5,168.2,56.2,171.8,59.4,174.1z"/>
		<path class="st0" d="M154.8,201.4c-3-2.4-10-4.7-14.6-6.1c-0.7-0.2-1.4-0.4-1.9-0.6c-4.9-1.6-9.9-3.1-14.8-4.5
			c-1.3-0.4-2.6-0.7-3.9-1.1c-0.4-0.1-0.8-0.2-1.2-0.3c-0.8-0.2-1.6-0.5-2.3-0.7c-0.5-0.2-1-0.3-1.5-0.5c-1.4-0.4-2.8-0.9-4.2-1.3
			c-0.5-0.2-0.9-0.3-1.3-0.4c-2.4-0.7-2.5-0.8-5.1-2.9c-1.2-1-2.3-2-3.3-3.1c-1.4-1.5-2.8-2.9-4.6-3.9c-0.8-0.4-1.7-0.7-2.6-0.9
			l-3.7-0.6l-1-0.2l-0.9-0.1l-3.9-0.6l-6.5-1c-1.3-0.2-3.3,0.8-3.6,1.8c-0.1,0.4,0.2,0.9,1,1.3c0.5,0.3,1,0.5,1.5,0.7
			c1.2,0.5,2.5,1,3.8,1.5c0,0,0.1,0,0.1,0c0.3,0.1,0.7,0.3,1,0.4c0.4,0.1,0.7,0.3,1.1,0.4c3.5,1.4,6.9,3.1,9.2,5.9
			c0.9,1.2,1.7,2.6,2.4,3.9c0,0,0.1,0.1,0.1,0.1c0.1,0.2,0.3,0.5,0.4,0.7c0.1,0.2,0.3,0.5,0.4,0.7c1.3,2.3,2.7,4.2,5.2,4.9
			c2.9,0.8,5.8,1.7,8.6,2.5c5.7,1.6,11.6,3.3,17.3,5.1l4.3,1.6l1,0.4l1,0.4l0.6,0.2c0,0,0,0,0,0l9.4,3.4c0.4,0.1,0.6,0.5,0.4,0.9
			c-0.1,0.4-0.5,0.6-0.9,0.4l-8.1-3c0.1,0.5,0.2,0.9,0.3,1.2c0.6,2.3,0.6,2.4,0.6,6l0,0.3l0,0.8l0,0.3c4.5,0.4,6.9,0.4,11.4,0.4h0.9
			c0,0,0,0,0,0c5,0,8.3-1.3,9.8-3.8C158.6,208.4,158,203.9,154.8,201.4z"/>
	</g>
	<g>
		<path d="M56.7,214.4c-0.7,0.5-1.3,1.1-1.8,2c-1.5,2.4-2.4,6.2-3,10.3c-0.3,1.8-0.5,3.7-0.7,5.5c-0.1,0.5-0.1,1.1-0.2,1.6
			c-0.4,3.3-1.2,8.6-1.7,10.7l1.7,0c0.5-2.1,1.1-7,1.5-10.5c0.1-0.7,0.2-1.4,0.2-2.2c0.2-1.9,0.5-3.8,0.8-5.6
			c0.8-4.8,1.9-9.2,4.1-10.6c0.3-0.2,0.4-0.7,0.2-1C57.4,214.3,57,214.2,56.7,214.4z"/>
		<path d="M155.7,200.3c-3.2-2.6-10.3-4.9-15-6.4c-0.7-0.2-1.4-0.4-1.9-0.6c-4.9-1.6-10-3.1-14.9-4.5c-4.3-1.2-8.7-2.5-13.1-3.9
			c-0.5-0.2-1-0.3-1.3-0.4c-2.2-0.7-2.2-0.7-4.7-2.6c-1.2-0.9-2.2-1.9-3.1-3c-1.4-1.5-2.9-3.1-5-4.2c-0.9-0.5-2-0.9-3.1-1l-2.6-0.4
			c4.4-4.1,7.3-9.8,7.9-16.2c0.1-0.8,0.1-1.6,0.1-2.4c0-3.3-0.6-6.4-1.8-9.3c-2.1-11.7-11.9-21-24.4-21.9
			c-6.4-0.5-12.4,1.4-17.3,4.8c0-1.5-0.3-2.9-0.9-4.2c-3.8-8.5-13.7-13.6-22.9-12.7c-9.3,0.9-17.7,7.2-21.9,15.5
			C5.6,135,5.2,145,7.8,153.9c2,7,5.8,13.5,6.3,20.7c0.7,9.6-4.3,16.6-14.1,18c11,4.5,20.3-0.5,24.3-3.4c4-2.9,6.9-7.3,7.9-12.1
			c1.1-5,0.3-10.3,0.1-15.4c-0.1-4.5,0.8-9.8,3.4-13.5c2.2-3.2,5.7-3.5,9.1-4.4c-0.3,1.4-0.5,2.8-0.7,4.2
			c-0.7,9.6,3.7,18.3,10.9,23.6c0.9,1.4,2,2.6,3.4,3.6c4.4,3.2,9.5,4.8,14.9,4.8c2.2,0,4.3-0.3,6.3-0.8c3.9,1.5,7.9,3.1,10.3,6.2
			c0.7,0.9,1.3,2,1.9,3.1c-2.9-0.1-5.8-0.2-8.7-0.4c-14-0.7-27.1-1.1-40.2,3.7c-17.8,6.5-28.6,38.4-35.4,52.6h1.7
			c0,0,7.7-16.8,7.7-16.8c6.8-14,14.4-29.9,26.5-34.4c7.1-2.7,14.2-3.7,21.6-3.9c0,6.5,5.6,13,11.7,13.7c0.4,0,0.7,0.1,1.1,0.1
			c2.3,0,4.5-0.9,6.4-2.5c2.8-2.5,4.6-6.6,4.8-10.6c1.2,0,2.5,0.1,3.7,0.1c1.5,2.7,3.2,5.4,6.5,6.3c2.9,0.8,5.8,1.7,8.7,2.5
			c5.7,1.6,11.6,3.3,17.3,5.1l5.6,2.1c1.1,2.5,1.9,4.9,1.9,8.4l0,0.8c-0.1,2.8-0.7,6.3-3.3,7.3c-1.3,0.5-2.9,0.3-4.3,0.1
			c-1.9-0.3-3.8-0.6-5.8-1c-5.6-1-11.4-2-16.8-1.9c0.6-3.5,1.8-7,4.1-10c0.2-0.3,0.2-0.8-0.2-1s-0.8-0.2-1,0.2
			c-0.2,0.3-0.4,0.5-0.5,0.8c-2.1,3.1-3.2,6.6-3.8,10.1c0,0.2-0.1,0.5-0.1,0.7c0,0.2-0.1,0.5-0.1,0.7c-0.4,2.7-0.4,5.3-0.4,7.7
			c0,3.3,0.1,12.5,0.2,15.6h1.7c-0.1-2.9-0.4-12.5-0.5-15.7c0-2.4,0-5.1,0.4-7.8c5.3-0.1,11.1,0.9,16.8,1.9c2,0.4,3.9,0.7,5.8,1
			c1.5,0.2,3.4,0.5,5-0.2c2.7-1.1,3.8-4,4.1-6.9c4.4,0.4,6.9,0.5,10.9,0.5c0.2,0,0.4,0,0.6,0h0.9c0,0,0,0,0,0c5.5,0,9.2-1.5,11-4.5
			C160.2,208.6,159.4,203.2,155.7,200.3z M146.6,216C146.5,216,146.5,216,146.6,216h-0.9c-4.6,0-6.9,0-11.4-0.4l0-0.3l0-0.8l0-0.3
			c0-3.6,0-3.7-0.6-6c-0.1-0.4-0.2-0.8-0.3-1.2l8.1,3c0.4,0.1,0.8-0.1,0.9-0.4c0.1-0.4-0.1-0.8-0.4-0.9l-9.4-3.4c0,0,0,0,0,0
			l-0.6-0.2l-1-0.4l-1-0.4l-4.3-1.6c-5.7-1.8-11.6-3.5-17.3-5.1c-2.9-0.8-5.8-1.6-8.6-2.5c-2.5-0.7-3.9-2.7-5.2-4.9
			c-0.1-0.2-0.3-0.5-0.4-0.7c-0.1-0.2-0.3-0.5-0.4-0.7c0,0-0.1-0.1-0.1-0.1c-0.7-1.3-1.5-2.7-2.4-3.9c-2.3-2.9-5.7-4.5-9.2-5.9
			c-0.4-0.1-0.7-0.3-1.1-0.4c-0.3-0.1-0.7-0.3-1-0.4c0,0-0.1,0-0.1,0c-1.3-0.5-2.6-1-3.8-1.5c-0.5-0.2-1-0.5-1.5-0.7
			c-0.8-0.4-1.1-0.8-1-1.3c0.3-1,2.4-2,3.6-1.8l6.5,1l3.9,0.6l0.9,0.1l1,0.2l3.7,0.6c1,0.1,1.8,0.4,2.6,0.9c1.8,1,3.2,2.4,4.6,3.9
			c1,1,2,2.1,3.3,3.1c2.7,2.1,2.8,2.1,5.1,2.9c0.4,0.1,0.8,0.3,1.3,0.4c1.4,0.5,2.8,0.9,4.2,1.3c0.5,0.2,1,0.3,1.5,0.5
			c0.8,0.2,1.6,0.5,2.3,0.7c0.4,0.1,0.8,0.2,1.2,0.3c1.3,0.4,2.6,0.8,3.9,1.1c4.9,1.4,9.9,2.9,14.8,4.5c0.6,0.2,1.2,0.4,1.9,0.6
			c4.6,1.5,11.5,3.7,14.6,6.1c3.1,2.5,3.8,7.1,1.5,10.8C154.8,214.7,151.5,216,146.6,216z M73.5,178.7c-5,0-9.7-1.5-13.8-4.3
			c-0.1-0.1-0.2-0.1-0.3-0.2c-3.2-2.3-4.9-6-4.7-9.9c0.3-4.1,2.6-7.7,6.2-9.7c8.2-4.5,13.3-13.1,13.3-22.4c0-0.5,0-0.9,0-1.4
			c0-0.1,0-0.1,0-0.2c0,0,0,0,0,0c12.4,0.4,22.4,10.2,23.3,22.4c0,0.6,0.1,1.1,0.1,1.7c0,0.7,0,1.5-0.1,2.2
			c-0.6,6.5-3.7,12.1-8.3,16.1l-3.5-0.5l-8.2-1.3c-1.8-0.3-4.6,1-5.2,2.7c-0.2,0.5-0.4,1.8,1.4,2.8c0.1,0.1,0.2,0.1,0.3,0.2
			c1.1,0.6,2.2,1.1,3.4,1.5C76.1,178.6,74.8,178.7,73.5,178.7z M83.4,199.5c-1.8,1.6-4,2.4-6.3,2.1c-5.4-0.6-10.4-6.6-10.5-12.3
			c5.4-0.1,11,0.1,16.6,0.4c1.5,0.1,2.9,0.1,4.4,0.2C87.5,193.6,85.9,197.3,83.4,199.5z"/>
	</g>
</g>
</svg>
